<?xml version="1.0" encoding="UTF-8" standalone="no"?>
<!-- Generated by IcoMoon.io -->

<svg
   xmlns:dc="http://purl.org/dc/elements/1.1/"
   xmlns:cc="http://creativecommons.org/ns#"
   xmlns:rdf="http://www.w3.org/1999/02/22-rdf-syntax-ns#"
   xmlns:svg="http://www.w3.org/2000/svg"
   xmlns="http://www.w3.org/2000/svg"
   xmlns:sodipodi="http://sodipodi.sourceforge.net/DTD/sodipodi-0.dtd"
   xmlns:inkscape="http://www.inkscape.org/namespaces/inkscape"
   version="1.1"
   width="32"
   height="32"
   viewBox="0 0 32 32"
   id="svg2"
   inkscape:version="0.48.4 r9939"
   sodipodi:docname="region2.svg">
  <metadata
     id="metadata10">
    <rdf:RDF>
      <cc:Work
         rdf:about="">
        <dc:format>image/svg+xml</dc:format>
        <dc:type
           rdf:resource="http://purl.org/dc/dcmitype/StillImage" />
      </cc:Work>
    </rdf:RDF>
  </metadata>
  <defs
     id="defs8" />
  <sodipodi:namedview
     pagecolor="#ffffff"
     bordercolor="#666666"
     borderopacity="1"
     objecttolerance="10"
     gridtolerance="10"
     guidetolerance="10"
     inkscape:pageopacity="0"
     inkscape:pageshadow="2"
     inkscape:window-width="1920"
     inkscape:window-height="1024"
     id="namedview6"
     showgrid="false"
     inkscape:zoom="7.375"
     inkscape:cx="16.542373"
     inkscape:cy="16"
     inkscape:window-x="0"
     inkscape:window-y="27"
     inkscape:window-maximized="1"
     inkscape:current-layer="svg2" />
  <path
     d="m 31.046225,0.95358816 c -1.270784,-1.27078421 -3.331537,-1.27078421 -4.602321,0 L 22.067753,5.3297394 18.981911,2.2438979 15.529966,5.6958424 18.235874,8.4017504 6.2325772,20.405048 c -0.2050177,0.205017 -0.2912552,0.481628 -0.261967,0.74929 h -0.00651 v 4.067812 c 0,0.449086 0.3644759,0.813562 0.8135622,0.813562 h 4.0678111 c 0,0 0.06753,0 0.101695,0 0.234306,0 0.468612,-0.08949 0.646782,-0.267662 l 12.003298,-12.003297 2.705908,2.705908 3.451944,-3.451945 -3.085841,-3.0858415 4.376151,-4.3761512 c 1.270784,-1.2707842 1.270784,-3.3315374 0,-4.60232158 z M 10.366287,24.40696 H 7.5928533 V 21.633527 L 19.531066,9.6953144 22.304499,12.468748 10.366287,24.40696 z"
     id="path4"
     inkscape:connector-curvature="0"
     style="fill:#444444" />
  <path
     style="fill:#444444;fill-opacity:1;stroke:#444444;stroke-width:0.91568041;stroke-opacity:1"
     id="path2989"
     d="M 8.5092716,18.425132 C 7.9496939,18.159392 7.3781076,17.922552 6.8006189,17.702295 6.2746191,17.525111 5.7434053,17.364016 5.201905,17.24634 4.8404164,17.170327 4.4715829,17.151549 4.1038134,17.14453 3.8273267,17.163246 3.5899927,17.291063 3.3558513,17.433827 6.0397265,15.780372 4.6901356,16.550401 4.1786111,17.109594 3.9432674,17.429289 3.6929749,17.736655 3.4496468,18.049756 3.1833016,18.416041 3.038372,18.853029 2.876043,19.274703 c -0.1345852,0.351831 -0.2693365,0.703519 -0.3902879,1.060658 -0.107426,0.328464 -0.193573,0.663653 -0.2535435,1.004786 -0.04979,0.350852 -0.073787,0.706948 -0.056678,1.06124 0.032115,0.410736 0.1712979,0.801486 0.2782477,1.195736 0.1288878,0.506857 0.3256957,0.989818 0.5325989,1.466673 0.2081343,0.558173 0.5368083,1.050568 0.8693784,1.534903 0.2984257,0.423336 0.6397984,0.808286 0.9950634,1.179833 0.3691985,0.321388 0.744943,0.636539 1.1421402,0.920224 0.4356583,0.303546 0.9086766,0.539431 1.3870376,0.760163 0.5894924,0.263637 1.2040379,0.461835 1.8173982,0.656192 0.5706082,0.143843 1.152525,0.23643 1.736961,0.293301 0.546852,0.0439 1.095624,0.04889 1.64382,0.04945 0.370629,0.0013 0.743629,-0.04973 1.097112,-0.165821 0.384982,-0.100651 0.728706,-0.304467 1.069767,-0.50754 -2.622049,1.481655 -1.407552,0.9449 -0.944236,0.485606 0.07455,-0.0739 0.141765,-0.162431 0.207505,-0.244328 0.221202,-0.253746 0.450409,-0.497232 0.646984,-0.772647 0.177229,-0.220794 0.304818,-0.460399 0.369905,-0.738841 0.0475,-0.324936 0.101856,-0.648319 0.133049,-0.975501 0.02684,-0.318764 0.03084,-0.638823 0.03266,-0.958577 -0.004,-0.303033 0.01375,-0.607391 -0.01055,-0.909664 -0.02664,-0.261988 -0.08542,-0.516648 -0.144757,-0.772034 -0.05004,-0.25427 -0.120046,-0.503975 -0.196817,-0.750826 -0.07187,-0.214707 -0.139566,-0.432787 -0.218783,-0.644858 -0.06601,-0.190858 -0.131093,-0.381922 -0.19358,-0.574214 -0.0548,-0.187344 -0.184941,-0.293672 -0.316338,-0.420542 -0.102858,-0.07801 -0.05238,-0.03493 -0.150595,-0.130296 0,0 1.544307,-0.991341 1.544307,-0.991341 l 0,0 c 0.09474,0.08571 0.04464,0.04175 0.150691,0.131478 0.155897,0.145674 0.29276,0.292864 0.363645,0.503317 0.05857,0.189903 0.127554,0.375596 0.188035,0.564673 0.08332,0.214558 0.145423,0.440027 0.221155,0.657462 0.07809,0.251411 0.154478,0.504538 0.203969,0.763822 0.05884,0.263387 0.12639,0.523322 0.153996,0.793208 0.03899,0.30781 0.0095,0.61977 0.01878,0.929591 -0.0024,0.324754 -0.0035,0.649918 -0.02796,0.973885 -0.0272,0.332424 -0.08092,0.659791 -0.122058,0.990174 -0.0425,0.302893 -0.14276,0.57927 -0.338425,0.814425 -0.192634,0.28075 -0.397305,0.548769 -0.644181,0.781774 -0.09812,0.130222 -0.193093,0.28322 -0.311158,0.39519 -0.558456,0.529631 -1.677777,0.770717 -2.016288,1.27203 -0.349351,0.199622 -0.708964,0.37796 -1.099418,0.474176 -0.367206,0.09135 -0.744736,0.13391 -1.122713,0.120793 -0.549274,-0.0081 -1.099178,-0.0175 -1.6466162,-0.06879 C 8.883735,31.416823 8.2925725,31.321905 7.7180189,31.159075 7.102139,30.953515 6.482544,30.75451 5.8891754,30.4849 5.4010646,30.257974 4.9185504,30.015068 4.4762724,29.700437 4.0737346,29.406749 3.6919299,29.082935 3.318857,28.750384 2.9562067,28.37204 2.6145286,27.973653 2.3106266,27.542276 1.9766395,27.045244 1.642504,26.542558 1.4239657,25.977081 1.2122317,25.492773 1.0093673,25.002702 0.87386249,24.488581 0.76372049,24.082956 0.61326844,23.683519 0.57251723,23.262042 0.54228384,22.895163 0.56709332,22.52665 0.60868963,22.161381 0.66391112,21.811096 0.74349944,21.466802 0.84857456,21.128859 0.97044021,20.768216 1.1022003,20.412373 1.2415194,20.058483 1.4066322,19.62587 1.5547034,19.181115 1.7933938,18.784815 2.0287101,18.466283 2.2903879,18.168645 2.515829,17.84284 3.0387956,17.089252 4.1125009,16.704946 4.7670909,16.257746 5.0228835,16.129873 5.280784,16.029551 5.5710055,16.047177 c 0.3719054,0.01671 0.7440548,0.04974 1.1074223,0.137966 0.5424903,0.132021 1.0783435,0.292583 1.6046548,0.482619 0.5845331,0.227499 1.1617224,0.474868 1.7364054,0.727776 0,0 -1.5102166,1.029594 -1.5102166,1.029594 z"
     inkscape:connector-curvature="0" />
</svg>
