<?xml version="1.0" encoding="UTF-8" standalone="no"?>
<!-- Generated by IcoMoon.io -->

<svg
   xmlns:dc="http://purl.org/dc/elements/1.1/"
   xmlns:cc="http://creativecommons.org/ns#"
   xmlns:rdf="http://www.w3.org/1999/02/22-rdf-syntax-ns#"
   xmlns:svg="http://www.w3.org/2000/svg"
   xmlns="http://www.w3.org/2000/svg"
   xmlns:sodipodi="http://sodipodi.sourceforge.net/DTD/sodipodi-0.dtd"
   xmlns:inkscape="http://www.inkscape.org/namespaces/inkscape"
   version="1.1"
   width="32"
   height="32"
   viewBox="0 0 32 32"
   id="svg2"
   inkscape:version="0.48.4 r9939"
   sodipodi:docname="region.svg">
  <metadata
     id="metadata10">
    <rdf:RDF>
      <cc:Work
         rdf:about="">
        <dc:format>image/svg+xml</dc:format>
        <dc:type
           rdf:resource="http://purl.org/dc/dcmitype/StillImage" />
      </cc:Work>
    </rdf:RDF>
  </metadata>
  <defs
     id="defs8" />
  <sodipodi:namedview
     pagecolor="#ffffff"
     bordercolor="#666666"
     borderopacity="1"
     objecttolerance="10"
     gridtolerance="10"
     guidetolerance="10"
     inkscape:pageopacity="0"
     inkscape:pageshadow="2"
     inkscape:window-width="1920"
     inkscape:window-height="1024"
     id="namedview6"
     showgrid="false"
     inkscape:zoom="7.375"
     inkscape:cx="16.542373"
     inkscape:cy="16"
     inkscape:window-x="0"
     inkscape:window-y="27"
     inkscape:window-maximized="1"
     inkscape:current-layer="svg2" />
  <path
     d="M 6.3728814,25.355932 C 9.5593221,15.79661 17.899034,-0.1355932 31.864407,-0.1355932 25.317067,5.1172542 22.305085,17.389831 17.525424,17.389831 c -4.779662,0 -4.779662,0 -4.779662,0 L 7.9661017,25.355932 H 6.3728814 z"
     id="path4"
     inkscape:connector-curvature="0"
     style="fill:#444444" />
  <path
     style="fill:#444444;fill-opacity:1;stroke:#444444;stroke-width:0.9710533;stroke-opacity:1"
     id="path2999"
     d="M 8.0309946,20.88114 C 7.6976231,20.569268 7.3385523,20.292246 6.9630549,20.067882 6.5438877,19.801829 6.0990794,19.674055 5.6371541,19.597765 5.2293808,19.502554 4.8179581,19.441134 4.4041984,19.409244 c -0.2620671,-0.02039 -0.4959554,-0.0357 -0.7511261,0.04395 -0.030222,0.01833 -0.060444,0.03664 -0.090666,0.05497 0.065955,-0.02729 -0.2581516,0.191621 -0.1932303,0.14454 2.3782941,-1.724715 1.7270219,-1.287779 1.2197754,-0.855453 -0.1758423,0.185935 -0.3525193,0.367609 -0.5393156,0.536428 -0.2678112,0.234355 -0.5312338,0.475893 -0.7937804,0.719433 -0.2111851,0.170075 -0.4026998,0.355374 -0.5470998,0.614821 -0.1271652,0.21279 -0.2034313,0.462877 -0.2753799,0.710806 -0.09247,0.268313 -0.134636,0.552897 -0.1579573,0.841939 -0.020414,0.344937 -0.077236,0.679551 -0.072409,1.026452 0.023022,0.372932 0.022445,0.748583 0.056393,1.12023 0.031845,0.314158 0.089455,0.620679 0.1482765,0.927939 0.031392,0.317095 0.1562647,0.587624 0.2832322,0.857276 0.1603344,0.324277 0.3904485,0.576973 0.5802874,0.872484 0.1871952,0.31429 0.4228469,0.557009 0.6649879,0.799468 0.2521395,0.253479 0.4894363,0.529559 0.7530912,0.764148 0.3027078,0.285916 0.6502374,0.490146 1.0030116,0.657597 0.3985177,0.217629 0.8111256,0.385543 1.2312763,0.522501 0.4216607,0.145483 0.8473196,0.266544 1.2704222,0.407267 0.4441503,0.13324 0.8998624,0.168109 1.3544398,0.188354 0.4251977,0.0135 0.8505755,0.01 1.2758625,0.0088 0.407505,0.03178 0.805991,-0.05912 1.204906,-0.147551 0.445508,-0.115646 0.884989,-0.261714 1.31126,-0.462364 0.168344,-0.08962 0.214333,-0.107413 0.373248,-0.218022 0.05662,-0.03942 0.222708,-0.166 0.166349,-0.125972 -2.284614,1.622641 -1.563174,1.211723 -1.075006,0.69754 0.199677,-0.26464 0.405294,-0.526769 0.554497,-0.841617 0.138183,-0.342511 0.206632,-0.722272 0.281244,-1.092887 0.06093,-0.305449 0.07881,-0.619442 0.08811,-0.932934 0.0024,-0.326874 0.01638,-0.654894 -0.0051,-0.981 -0.02155,-0.368654 -0.126145,-0.705185 -0.259392,-1.029521 -0.171168,-0.3298 -0.283335,-0.700441 -0.476309,-1.011529 -0.227094,-0.349126 -0.424097,-0.727088 -0.650607,-1.07647 -0.248934,-0.381083 -0.489268,-0.771077 -0.720913,-1.169076 -0.242139,-0.397338 -0.508702,-0.765374 -0.78027,-1.130157 -0.269396,-0.276591 -0.524329,-0.578428 -0.814001,-0.821884 -0.1338714,-0.132016 -0.067719,-0.07144 -0.1977285,-0.183 0,0 1.4720635,-1.178935 1.4720635,-1.178935 l 0,0 c 0.129431,0.12006 0.06471,0.05873 0.19411,0.184098 0.289385,0.265795 0.555193,0.570107 0.825231,0.86562 0.27872,0.368992 0.545293,0.749305 0.793656,1.151825 0.229496,0.395317 0.467547,0.783152 0.715761,1.160161 0.226126,0.352263 0.429051,0.727116 0.656943,1.077969 0.196848,0.324233 0.3165,0.701669 0.491092,1.044506 0.146745,0.345326 0.261491,0.705866 0.294337,1.099286 0.03501,0.333517 0.01433,0.671456 0.01779,1.007301 -0.0065,0.327096 -0.01896,0.655328 -0.0754,0.975925 -0.07158,0.384279 -0.150909,0.77117 -0.261813,1.139743 -0.128485,0.354991 -0.338705,0.617752 -0.534203,0.91478 -0.674814,0.836351 -1.5711,1.360101 -2.439625,1.814627 -0.435075,0.180315 -0.877206,0.330063 -1.328238,0.433192 -0.405359,0.08749 -0.8120163,0.143135 -1.2242259,0.119262 -0.4257667,3.07e-4 -0.8516631,5.2e-4 -1.277206,-0.01925 C 7.6815568,31.608513 7.2183903,31.557649 6.7678696,31.410183 6.3451455,31.266795 5.9163838,31.158133 5.4962744,31.00322 5.0736159,30.854096 4.6585906,30.677529 4.2547109,30.460087 3.8923589,30.273161 3.5337541,30.064066 3.2215254,29.762122 2.9595209,29.519538 2.7192931,29.242321 2.4634799,28.98951 2.2123731,28.73708 1.9753614,28.472111 1.7781514,28.150101 1.5825098,27.847198 1.345741,27.587157 1.1833537,27.251507 1.0477948,26.965251 0.90704488,26.673992 0.87254598,26.337075 0.81473155,26.021912 0.74918281,25.71058 0.71825106,25.388455 c -0.0447554,-0.376952 -0.0321358,-0.761114 -0.0629912,-1.140366 -0.003485,-0.09088 -0.0136921,-0.305076 -0.009083,-0.395577 0.0111321,-0.218577 0.074577,-0.430813 0.0681283,-0.65158 0.0171532,-0.305299 0.046027,-0.611064 0.13636086,-0.897958 0.0830346,-0.255209 0.13934903,-0.525635 0.25570348,-0.762449 0.1698561,-0.282239 0.2595461,-0.509287 0.5329291,-0.679305 0.2603957,-0.244998 0.5194555,-0.490784 0.790114,-0.717827 0.1820602,-0.175079 0.3853829,-0.317996 0.5361432,-0.539473 0.6373485,-0.598014 1.3202985,-1.186377 2.0809484,-1.476439 0.2557347,-0.04419 0.5146457,-0.0085 0.7712167,0.0089 0.4130038,0.04517 0.822773,0.120206 1.2312736,0.208793 0.4742195,0.09479 0.9313625,0.247594 1.3620894,0.522493 0.3754932,0.244347 0.7336166,0.529173 1.0846652,0.825147 0,0 -1.4647547,1.188304 -1.4647547,1.188304 z"
     inkscape:connector-curvature="0" />
</svg>
